<svg width="24" height="24" viewBox="0 0 24 24" fill="none" xmlns="http://www.w3.org/2000/svg">
<path d="M9 4.79999H8.2C7.0799 4.79999 6.51984 4.79999 6.09202 5.01797C5.71569 5.20972 5.40973 5.51568 5.21799 5.89201C5 6.31983 5 6.87988 5 7.99999V9.79999M9 4.79999H15M9 4.79999V3.79999M9 4.79999V6.79999M15 4.79999H15.8C16.9201 4.79999 17.4802 4.79999 17.908 5.01797C18.2843 5.20972 18.5903 5.51568 18.782 5.89201C19 6.31983 19 6.87988 19 7.99999V9.79999M15 4.79999V3.79999M15 4.79999V6.79999M19 9.79999V14.6C19 15.7201 19 16.2801 18.782 16.708C18.5903 17.0843 18.2843 17.3903 17.908 17.582C17.4802 17.8 16.9201 17.8 15.8 17.8H8.2C7.0799 17.8 6.51984 17.8 6.09202 17.582C5.71569 17.3903 5.40973 17.0843 5.21799 16.708C5 16.2801 5 15.7201 5 14.6V9.79999M19 9.79999H5" stroke="#1E1F20" stroke-width="1.7" stroke-linecap="round"/>
</svg>
