<svg width="40" height="40" viewBox="0 0 40 40" fill="none" xmlns="http://www.w3.org/2000/svg">
<path d="M30.0833 18.6628V30.0355C30.0833 31.1205 29.2252 32 28.1667 32H23.8556C23.4137 32 23.0556 31.6418 23.0556 31.2V27.186C23.0556 25.0161 21.6588 23.3527 19.5417 23.3527C17.4246 23.3527 16.0278 25.0161 16.0278 27.186V31.2C16.0278 31.6418 15.6696 32 15.2278 32H10.9167C9.85812 32 9 31.1205 9 30.0355V18.6628C9 17.779 9.38705 16.9418 10.0544 16.3822L18.328 9.44406C19.034 8.85198 20.0493 8.85198 20.7554 9.44406L29.0289 16.3822C29.6963 16.9418 30.0833 17.779 30.0833 18.6628Z" fill="#D5DAE1"/>
</svg>
