<svg width="40" height="40" viewBox="0 0 40 40" fill="none" xmlns="http://www.w3.org/2000/svg">
<path fill-rule="evenodd" clip-rule="evenodd" d="M11.25 13.1421C9.73125 13.1421 8.50003 14.3733 8.50003 15.8921V28.5921C8.50003 30.1109 9.73125 31.3421 11.25 31.3421H23.95C25.4688 31.3421 26.7 30.1109 26.7 28.5921V25.9681C26.7 25.2777 27.2597 24.7181 27.95 24.7181C28.6404 24.7181 29.2 25.2777 29.2 25.9681V28.5921C29.2 31.4916 26.8495 33.8421 23.95 33.8421H11.25C8.35053 33.8421 6.00003 31.4916 6.00003 28.5921V15.8921C6.00003 12.9926 8.35054 10.6421 11.25 10.6421H14.6801C15.3705 10.6421 15.9301 11.2018 15.9301 11.8921C15.9301 12.5825 15.3705 13.1421 14.6801 13.1421H11.25Z" fill="#D5DAE1"/>
<path fill-rule="evenodd" clip-rule="evenodd" d="M31.3767 14.5919L33.0611 12.9074C33.4516 12.5169 33.4516 11.8838 33.0611 11.4932L28.8608 7.29289C28.4703 6.90237 27.8371 6.90237 27.4466 7.29289L25.7621 8.97733L31.3767 14.5919ZM22.9337 11.8058L16.0377 18.7017C15.8573 18.8822 15.7527 19.1248 15.7452 19.3798L15.6196 23.7058C15.6029 24.2807 16.0733 24.7511 16.6482 24.7344L20.9742 24.6088C21.2293 24.6014 21.4718 24.4967 21.6523 24.3163L28.5482 17.4203L22.9337 11.8058Z" fill="#D5DAE1"/>
<path d="M31.3767 14.5919L30.8463 15.1222L31.3767 15.6525L31.907 15.1222L31.3767 14.5919ZM33.0611 12.9074L33.5914 13.4378V13.4378L33.0611 12.9074ZM33.0611 11.4932L33.5914 10.9629V10.9629L33.0611 11.4932ZM28.8608 7.29289L28.3305 7.82322V7.82322L28.8608 7.29289ZM27.4466 7.29289L27.9769 7.82322V7.82322L27.4466 7.29289ZM25.7621 8.97733L25.2318 8.447L24.7015 8.97733L25.2318 9.50766L25.7621 8.97733ZM22.9337 11.8058L23.464 11.2754L22.9337 10.7451L22.4034 11.2754L22.9337 11.8058ZM16.0377 18.7017L15.5074 18.1714H15.5074L16.0377 18.7017ZM15.7452 19.3798L14.9956 19.358L14.9956 19.358L15.7452 19.3798ZM15.6196 23.7058L16.3693 23.7276L16.3693 23.7276L15.6196 23.7058ZM16.6482 24.7344L16.6264 23.9848H16.6264L16.6482 24.7344ZM20.9742 24.6088L20.996 25.3585H20.996L20.9742 24.6088ZM21.6523 24.3163L22.1826 24.8466H22.1826L21.6523 24.3163ZM28.5482 17.4203L29.0786 17.9506L29.6089 17.4203L29.0786 16.89L28.5482 17.4203ZM31.907 15.1222L33.5914 13.4378L32.5308 12.3771L30.8463 14.0616L31.907 15.1222ZM33.5914 13.4378C34.2749 12.7544 34.2749 11.6463 33.5914 10.9629L32.5308 12.0236C32.6284 12.1212 32.6284 12.2795 32.5308 12.3771L33.5914 13.4378ZM33.5914 10.9629L29.3911 6.76256L28.3305 7.82322L32.5308 12.0236L33.5914 10.9629ZM29.3911 6.76256C28.7077 6.07915 27.5997 6.07915 26.9162 6.76256L27.9769 7.82322C28.0745 7.72559 28.2328 7.72559 28.3305 7.82322L29.3911 6.76256ZM26.9162 6.76256L25.2318 8.447L26.2925 9.50766L27.9769 7.82322L26.9162 6.76256ZM25.2318 9.50766L30.8463 15.1222L31.907 14.0616L26.2925 8.447L25.2318 9.50766ZM22.4034 11.2754L15.5074 18.1714L16.568 19.2321L23.464 12.3361L22.4034 11.2754ZM15.5074 18.1714C15.1916 18.4872 15.0085 18.9117 14.9956 19.358L16.4949 19.4016C16.4968 19.3378 16.5229 19.2772 16.568 19.2321L15.5074 18.1714ZM14.9956 19.358L14.8699 23.684L16.3693 23.7276L16.4949 19.4016L14.9956 19.358ZM14.8699 23.684C14.8407 24.6901 15.664 25.5133 16.67 25.4841L16.6264 23.9848C16.4827 23.9889 16.3651 23.8713 16.3693 23.7276L14.8699 23.684ZM16.67 25.4841L20.996 25.3585L20.9524 23.8591L16.6264 23.9848L16.67 25.4841ZM20.996 25.3585C21.4423 25.3455 21.8668 25.1624 22.1826 24.8466L21.1219 23.786C21.0768 23.8311 21.0162 23.8572 20.9524 23.8591L20.996 25.3585ZM22.1826 24.8466L29.0786 17.9506L28.0179 16.89L21.1219 23.786L22.1826 24.8466ZM29.0786 16.89L23.464 11.2754L22.4034 12.3361L28.0179 17.9506L29.0786 16.89Z" fill="#D5DAE1"/>
</svg>
