<svg width="24" height="24" viewBox="0 0 24 24" fill="none" xmlns="http://www.w3.org/2000/svg">
<path fill-rule="evenodd" clip-rule="evenodd" d="M20.9998 12C20.9998 11.6332 20.7973 11.3944 20.3925 10.9168C18.9275 9.18854 15.7204 6 11.9999 6C8.27931 6 5.07229 9.18854 3.60726 10.9168C3.20242 11.3944 3 11.6332 3 12C3 12.3668 3.20242 12.6056 3.60726 13.0832C5.07229 14.8115 8.27932 18 11.9999 18C15.7204 18 18.9275 14.8115 20.3925 13.0832C20.7973 12.6056 20.9998 12.3668 20.9998 12ZM11.9997 15C13.701 15 15.0801 13.6569 15.0801 12C15.0801 10.3431 13.701 9 11.9997 9C10.2985 9 8.91936 10.3431 8.91936 12C8.91936 13.6569 10.2985 15 11.9997 15Z" fill="#B3B8C0"/>
</svg>
