<svg width="24" height="24" viewBox="0 0 24 24" fill="none" xmlns="http://www.w3.org/2000/svg">
<path fill-rule="evenodd" clip-rule="evenodd" d="M18.3573 15.1567C19.2031 14.4184 19.8973 13.6674 20.3925 13.0832C20.7973 12.6056 20.9998 12.3668 20.9998 12C20.9998 11.6332 20.7973 11.3944 20.3925 10.9168C18.9275 9.18854 15.7204 6 11.9999 6C11.1766 6 10.3784 6.15614 9.61865 6.41805L12.2073 9.0067C13.7702 9.10798 15.0141 10.3444 15.0776 11.877L18.3573 15.1567ZM15.8743 16.9163L13.5506 14.5926C13.0951 14.8516 12.5652 15 11.9997 15C10.2985 15 8.91936 13.6569 8.91936 12C8.91936 11.4209 9.08783 10.8802 9.37963 10.4217L6.84668 7.88872C5.44813 8.88632 4.32098 10.0748 3.60726 10.9168C3.20242 11.3944 3 11.6332 3 12C3 12.3668 3.20242 12.6056 3.60726 13.0832C5.07229 14.8115 8.27932 18 11.9999 18C13.3834 18 14.6959 17.5591 15.8743 16.9163Z" fill="#B3B8C0"/>
<path d="M7 4L21 18" stroke="#B3B8C0" stroke-width="2"/>
</svg>
