<svg width="24" height="24" viewBox="0 0 24 24" fill="none" xmlns="http://www.w3.org/2000/svg">
<path d="M13.378 8.23602C13.378 6.87802 12.09 5.91202 10.284 5.91202C8.492 5.91202 7.162 6.87802 7.162 8.20802C7.162 9.60802 8.492 10.504 10.284 10.504C12.09 10.504 13.378 9.59402 13.378 8.23602ZM12.986 13.92H15.422V15.25H16.85V5.63202H15.422V12.87H12.986V13.92ZM17.074 17.784V16.636H9.472V14.116H8.044V17.784H17.074ZM11.39 14.62V12.268C12.468 12.198 13.56 12.1 14.624 11.974L14.526 10.91C13.42 11.036 12.104 11.134 10.424 11.19C9.052 11.246 7.694 11.26 6.28 11.26L6.476 12.45C7.638 12.436 8.786 12.408 9.948 12.352V14.62H11.39ZM11.964 8.23602C11.964 8.88002 11.32 9.41202 10.284 9.41202C9.248 9.41202 8.59 8.88002 8.59 8.23602C8.59 7.57802 9.248 7.01802 10.284 7.01802C11.32 7.01802 11.964 7.57802 11.964 8.23602Z" fill="#1E1F20"/>
</svg>
